<svg width="96" height="96" viewBox="0 0 96 96" fill="none" xmlns="http://www.w3.org/2000/svg">
<g clip-path="url(#clip0_469_1633)">
<path d="M84 12C85.0609 12 86.0783 12.4214 86.8284 13.1716C87.5786 13.9217 88 14.9391 88 16V38C85.3478 38 82.8043 39.0536 80.9289 40.9289C79.0536 42.8043 78 45.3478 78 48C78 50.6522 79.0536 53.1957 80.9289 55.0711C82.8043 56.9464 85.3478 58 88 58V80C88 81.0609 87.5786 82.0783 86.8284 82.8284C86.0783 83.5786 85.0609 84 84 84H12C10.9391 84 9.92172 83.5786 9.17157 82.8284C8.42143 82.0783 8 81.0609 8 80V58C10.6522 58 13.1957 56.9464 15.0711 55.0711C16.9464 53.1957 18 50.6522 18 48C18 45.3478 16.9464 42.8043 15.0711 40.9289C13.1957 39.0536 10.6522 38 8 38V16C8 14.9391 8.42143 13.9217 9.17157 13.1716C9.92172 12.4214 10.9391 12 12 12H84ZM64 36H32V60H64V36Z" fill="#0059F7"/>
</g>
<defs>
<clipPath id="clip0_469_1633">
<rect width="96" height="96" fill="white"/>
</clipPath>
</defs>
</svg>
