<svg width="124" height="42" viewBox="0 0 124 42" fill="none" xmlns="http://www.w3.org/2000/svg">
<g clip-path="url(#clip0_469_1876)">
<path d="M40.6134 29.7874L42.0949 26.2724C43.6959 27.4929 45.8226 28.1276 47.9255 28.1276C49.4787 28.1276 50.4584 27.5173 50.4584 26.5898C50.4345 24.0024 41.163 26.0283 41.0913 19.5354C41.0674 16.2402 43.9349 13.7016 47.9971 13.7016C50.4106 13.7016 52.824 14.3118 54.5445 15.7031L53.1586 19.2913C51.5815 18.2661 49.622 17.5339 47.7582 17.5339C46.4917 17.5339 45.6554 18.1441 45.6554 18.9252C45.6793 21.4638 55.0224 20.0724 55.118 26.2724C55.118 29.6409 52.3222 32.0087 48.3078 32.0087C45.3686 32.0087 42.6684 31.3008 40.6134 29.7874ZM97.461 25.0031C96.7202 26.3213 95.3343 27.2244 93.7333 27.2244C91.3676 27.2244 89.456 25.2716 89.456 22.8551C89.456 20.4386 91.3676 18.4858 93.7333 18.4858C95.3343 18.4858 96.7202 19.389 97.461 20.7071L101.547 18.3882C100.018 15.6055 97.0787 13.7016 93.7333 13.7016C88.7869 13.7016 84.7724 17.8024 84.7724 22.8551C84.7724 27.9079 88.7869 32.0087 93.7333 32.0087C97.1025 32.0087 100.018 30.1291 101.547 27.322L97.461 25.0031ZM57.173 6.11023H62.2867V31.6669H57.173V6.11023ZM103.554 6.11023V31.6669H108.668V24.0024L114.737 31.6669H121.285L113.567 22.5622L120.711 14.0677H114.451L108.668 21.122V6.11023H103.554ZM77.4843 25.052C76.7435 26.2968 75.2142 27.2244 73.4937 27.2244C71.1281 27.2244 69.2164 25.2716 69.2164 22.8551C69.2164 20.4386 71.1281 18.4858 73.4937 18.4858C75.2142 18.4858 76.7435 19.4622 77.4843 20.7315V25.052ZM77.4843 14.0677V16.1425C76.6479 14.7024 74.569 13.7016 72.3945 13.7016C67.9022 13.7016 64.3656 17.7535 64.3656 22.8307C64.3656 27.9079 67.9022 32.0087 72.3945 32.0087C74.569 32.0087 76.6479 31.0079 77.4843 29.5677V31.6425H82.5979V14.0677H77.4843Z" fill="#4E5A85"/>
<path d="M8.99984 24.8804C8.99984 26.6623 7.59 28.1024 5.84562 28.1024C4.10125 28.1024 2.69141 26.6623 2.69141 24.8804C2.69141 23.0985 4.10125 21.6583 5.84562 21.6583H8.99984V24.8804ZM10.5769 24.8804C10.5769 23.0985 11.9868 21.6583 13.7312 21.6583C15.4755 21.6583 16.8854 23.0985 16.8854 24.8804V32.9355C16.8854 34.7174 15.4755 36.1575 13.7312 36.1575C11.9868 36.1575 10.5769 34.7174 10.5769 32.9355V24.8804Z" fill="#4E5A85"/>
<path d="M13.7309 11.9437C11.9865 11.9437 10.5767 10.5036 10.5767 8.72168C10.5767 6.93979 11.9865 5.49963 13.7309 5.49963C15.4753 5.49963 16.8851 6.93979 16.8851 8.72168V11.9437H13.7309ZM13.7309 13.5792C15.4753 13.5792 16.8851 15.0193 16.8851 16.8012C16.8851 18.5831 15.4753 20.0233 13.7309 20.0233H5.82145C4.07708 20.0233 2.66724 18.5831 2.66724 16.8012C2.66724 15.0193 4.07708 13.5792 5.82145 13.5792H13.7309Z" fill="#4E5A85"/>
<path d="M26.3716 16.9479C26.3716 15.166 27.7815 13.7259 29.5258 13.7259C31.2702 13.7259 32.6801 15.166 32.6801 16.9479C32.6801 18.7298 31.2702 20.17 29.5258 20.17H26.3716V16.9479ZM24.7945 16.9479C24.7945 18.7298 23.3847 20.17 21.6403 20.17C19.8959 20.17 18.4861 18.7298 18.4861 16.9479V8.86841C18.4861 7.08652 19.8959 5.64636 21.6403 5.64636C23.3847 5.64636 24.7945 7.08652 24.7945 8.86841V16.9479Z" fill="#4E5A85"/>
<path d="M21.6403 29.7134C23.3847 29.7134 24.7945 31.1536 24.7945 32.9355C24.7945 34.7174 23.3847 36.1575 21.6403 36.1575C19.8959 36.1575 18.4861 34.7174 18.4861 32.9355V29.7134H21.6403ZM21.6403 28.1024C19.8959 28.1024 18.4861 26.6623 18.4861 24.8804C18.4861 23.0985 19.8959 21.6583 21.6403 21.6583H29.5497C31.2941 21.6583 32.7039 23.0985 32.7039 24.8804C32.7039 26.6623 31.2941 28.1024 29.5497 28.1024H21.6403Z" fill="#4E5A85"/>
</g>
<defs>
<clipPath id="clip0_469_1876">
<rect width="119" height="31" fill="white" transform="translate(2.5 5.5)"/>
</clipPath>
</defs>
</svg>
