<svg width="124" height="42" viewBox="0 0 124 42" fill="none" xmlns="http://www.w3.org/2000/svg">
<g clip-path="url(#clip0_469_1878)">
<path fill-rule="evenodd" clip-rule="evenodd" d="M95.6858 16.5176C96.0975 17.2163 96.2322 18.0113 96.2767 18.9051L96.3351 20.0963V28.4263L96.3948 29.6188C96.5143 31.5663 97.9742 33.0063 99.969 33.1288L101.175 33.1876V20.0963L101.234 18.9051C101.284 18.0213 101.417 17.2113 101.835 16.5076C102.261 15.7857 102.873 15.1869 103.609 14.771C104.344 14.3552 105.178 14.1372 106.026 14.1387C106.875 14.1402 107.708 14.3613 108.442 14.7797C109.176 15.1981 109.785 15.7992 110.209 16.5226C110.62 17.2213 110.749 18.0313 110.798 18.9051L110.858 20.0926V28.4263L110.918 29.6188C111.042 31.5763 112.491 33.0163 114.492 33.1288L115.698 33.1876V18.9051C115.698 16.3795 114.678 13.9574 112.863 12.1712C111.048 10.385 108.587 9.38106 106.02 9.38007C104.646 9.37864 103.287 9.6657 102.035 10.2221C100.783 10.7784 99.6655 11.5913 98.7581 12.6063C97.8503 11.5917 96.7332 10.779 95.4811 10.2225C94.229 9.66596 92.8707 9.37835 91.4967 9.37882C89.4866 9.37882 87.6214 9.97882 86.0764 11.0151C85.1336 9.98007 83.0244 9.37882 81.8136 9.37882V33.1876L83.0244 33.1288C85.0497 32.9976 86.5135 31.5963 86.5922 29.6188L86.657 28.4263V20.0963L86.7168 18.9051C86.7676 18.0063 86.8946 17.2163 87.3076 16.5126C87.7339 15.7912 88.3451 15.1924 89.0802 14.7761C89.8153 14.3598 90.6485 14.1405 91.4967 14.1401C92.3455 14.1402 93.1794 14.36 93.9147 14.7773C94.6499 15.1946 95.2607 15.7947 95.6858 16.5176ZM12.8397 33.1301L14.0505 33.1876H32.2009L32.1412 32.0001C31.9773 30.0426 30.5682 28.6126 28.5721 28.4851L27.3612 28.4263H16.4723L30.99 14.1388L30.9303 12.9526C30.8363 10.9751 29.3675 9.54632 27.3612 9.43757L26.1504 9.38382L8 9.37882L8.05972 10.5701C8.21854 12.5088 9.64795 13.9688 11.6275 14.0813L12.8397 14.1401H23.7286L9.21087 28.4276L9.27059 29.6188C9.39002 31.5813 10.8296 33.0026 12.8397 33.1288V33.1301ZM77.0628 12.8638C78.1867 13.9692 79.0782 15.2816 79.6864 16.726C80.2946 18.1704 80.6077 19.7185 80.6077 21.2819C80.6077 22.8454 80.2946 24.3935 79.6864 25.8379C79.0782 27.2823 78.1867 28.5947 77.0628 29.7001C74.7923 31.932 71.7139 33.1858 68.5041 33.1858C65.2944 33.1858 62.216 31.932 59.9455 29.7001C55.2201 25.0513 55.2201 17.5126 59.9455 12.8638C61.0683 11.7588 62.4013 10.8822 63.8685 10.284C65.3357 9.68581 66.9083 9.37781 68.4965 9.37757C70.0873 9.37648 71.6627 9.68394 73.1326 10.2824C74.6025 10.8808 75.938 11.7584 77.0628 12.8651V12.8638ZM73.6386 16.2351C74.9997 17.5751 75.7642 19.392 75.7642 21.2863C75.7642 23.1807 74.9997 24.9975 73.6386 26.3376C72.2765 27.6766 70.4297 28.4287 68.5041 28.4287C66.5786 28.4287 64.7318 27.6766 63.3697 26.3376C62.0086 24.9975 61.2441 23.1807 61.2441 21.2863C61.2441 19.392 62.0086 17.5751 63.3697 16.2351C64.7318 14.8961 66.5786 14.1439 68.5041 14.1439C70.4297 14.1439 72.2765 14.8961 73.6386 16.2351ZM43.1 9.37757C44.6883 9.37797 46.2609 9.68617 47.7281 10.2846C49.1953 10.883 50.5283 11.7598 51.6511 12.8651C56.3776 17.5126 56.3776 25.0526 51.6511 29.7001C49.3805 31.932 46.3021 33.1858 43.0924 33.1858C39.8826 33.1858 36.8042 31.932 34.5337 29.7001C29.8084 25.0513 29.8084 17.5126 34.5337 12.8638C35.6565 11.7588 36.9896 10.8822 38.4568 10.284C39.924 9.68581 41.4966 9.37781 43.0848 9.37757H43.1ZM48.2268 16.2326C49.5883 17.5726 50.3531 19.3898 50.3531 21.2844C50.3531 23.1791 49.5883 24.9962 48.2268 26.3363C46.8647 27.6753 45.0179 28.4275 43.0924 28.4275C41.1668 28.4275 39.32 27.6753 37.9579 26.3363C36.5969 24.9963 35.8323 23.1794 35.8323 21.2851C35.8323 19.3907 36.5969 17.5738 37.9579 16.2338C39.32 14.8948 41.1668 14.1426 43.0924 14.1426C45.0179 14.1426 46.8647 14.8948 48.2268 16.2338V16.2326Z" fill="#4E5A85"/>
</g>
<defs>
<clipPath id="clip0_469_1878">
<rect width="108" height="25" fill="white" transform="translate(8 8.5)"/>
</clipPath>
</defs>
</svg>
