<svg width="124" height="42" viewBox="0 0 124 42" fill="none" xmlns="http://www.w3.org/2000/svg">
<g clip-path="url(#clip0_469_1877)">
<path fill-rule="evenodd" clip-rule="evenodd" d="M73.9176 29.1789C68.1646 33.3008 59.8259 35.5 52.6464 35.5C42.5796 35.5 33.5169 31.8808 26.6607 25.8613C26.122 25.3879 26.6047 24.7428 27.2511 25.1114C34.6503 29.2962 43.7992 31.8137 53.2497 31.8137C59.6233 31.8137 66.6347 30.5319 73.0816 27.872C74.0555 27.4698 74.87 28.4919 73.9176 29.1789Z" fill="#4E5A85"/>
<path fill-rule="evenodd" clip-rule="evenodd" d="M76.3094 26.5189C75.5768 25.6057 71.4484 26.0874 69.5953 26.3011C69.0308 26.3681 68.9446 25.8906 69.4531 25.5471C72.7412 23.2976 78.1366 23.9469 78.7657 24.7009C79.3949 25.4591 78.602 30.7162 75.5121 33.2254C75.0381 33.6108 74.5856 33.4055 74.7968 32.8945C75.4906 31.2105 77.0463 27.4363 76.3094 26.5189Z" fill="#4E5A85"/>
<path fill-rule="evenodd" clip-rule="evenodd" d="M69.7246 9.66681V7.48018C69.7246 7.14926 69.9832 6.92725 70.2935 6.92725H80.3646C80.6878 6.92725 80.9463 7.15345 80.9463 7.48018V9.35264C80.942 9.66681 80.6705 10.0773 80.1879 10.7266L74.9692 17.9693C76.9084 17.9232 78.9554 18.2039 80.7136 19.1673C81.1101 19.3851 81.2178 19.7035 81.248 20.0177V22.3509C81.248 22.6693 80.886 23.0421 80.5068 22.8494C77.4083 21.2701 73.2928 21.0984 69.8668 22.8661C69.5178 23.0504 69.1515 22.6818 69.1515 22.3635V20.1475C69.1515 19.7915 69.1558 19.1841 69.5221 18.6437L75.5682 10.2156H70.3064C69.9832 10.2156 69.7246 9.99355 69.7246 9.66681Z" fill="#4E5A85"/>
<path fill-rule="evenodd" clip-rule="evenodd" d="M32.9869 23.3102H29.9229C29.6299 23.2892 29.3972 23.0756 29.3756 22.8033V7.51791C29.3756 7.21211 29.6385 6.96916 29.966 6.96916H32.8231C33.1205 6.98171 33.3575 7.20373 33.3791 7.4802V9.47833H33.4351C34.1806 7.54723 35.5812 6.64661 37.4687 6.64661C39.3864 6.64661 40.5844 7.54723 41.4463 9.47833C42.1875 7.54723 43.8725 6.64661 45.6781 6.64661C46.9623 6.64661 48.3672 7.16185 49.2247 8.31799C50.1944 9.60399 49.9961 11.4723 49.9961 13.1101L49.9918 22.7572C49.9918 23.063 49.7289 23.3102 49.4014 23.3102H46.3417C46.0358 23.2892 45.7901 23.0505 45.7901 22.7572V14.6558C45.7901 14.0107 45.8505 12.4022 45.704 11.7906C45.4756 10.7643 44.7904 10.4753 43.9026 10.4753C43.1614 10.4753 42.3857 10.957 42.0711 11.7278C41.7565 12.4985 41.7867 13.7887 41.7867 14.6558V22.7572C41.7867 23.063 41.5238 23.3102 41.1963 23.3102H38.1366C37.8264 23.2892 37.585 23.0505 37.585 22.7572L37.5807 14.6558C37.5807 12.951 37.8695 10.4418 35.6932 10.4418C33.4911 10.4418 33.5773 12.8881 33.5773 14.6558V22.7572C33.5773 23.063 33.3144 23.3102 32.9869 23.3102" fill="#4E5A85"/>
<path fill-rule="evenodd" clip-rule="evenodd" d="M89.6169 6.64661C94.1633 6.64661 96.624 10.4418 96.624 15.2674C96.624 19.9297 93.9047 23.6285 89.6169 23.6285C85.1523 23.6285 82.7218 19.8334 82.7218 15.1041C82.7218 10.3454 85.1825 6.64661 89.6169 6.64661ZM89.6427 9.76736C87.3846 9.76736 87.2424 12.7583 87.2424 14.6223C87.2424 16.4906 87.2122 20.4785 89.6169 20.4785C91.9913 20.4785 92.1034 17.2614 92.1034 15.3009C92.1034 14.0108 92.0474 12.4692 91.6466 11.2461C91.3018 10.1821 90.6166 9.76736 89.6427 9.76736Z" fill="#4E5A85"/>
<path fill-rule="evenodd" clip-rule="evenodd" d="M102.519 23.3102H99.4681C99.1622 23.2892 98.9165 23.0505 98.9165 22.7572L98.9122 7.46764C98.9381 7.18698 99.1923 6.96916 99.5026 6.96916H102.343C102.61 6.98171 102.829 7.15766 102.89 7.39643V9.73385H102.946C103.803 7.64357 105.006 6.64661 107.122 6.64661C108.496 6.64661 109.837 7.12833 110.698 8.44785C111.5 9.67102 111.5 11.7278 111.5 13.2065V22.8285C111.466 23.0965 111.211 23.3102 110.91 23.3102H107.837C107.557 23.2892 107.324 23.0882 107.294 22.8285V14.526C107.294 12.8546 107.492 10.4083 105.376 10.4083C104.631 10.4083 103.946 10.8942 103.605 11.6314C103.174 12.5656 103.118 13.4955 103.118 14.526V22.7572C103.114 23.063 102.847 23.3102 102.519 23.3102" fill="#4E5A85"/>
<path fill-rule="evenodd" clip-rule="evenodd" d="M61.6962 16.0089C61.6962 17.1692 61.7263 18.1369 61.123 19.1673C60.6361 20.0051 59.8604 20.5204 59.0028 20.5204C57.8263 20.5204 57.1368 19.6491 57.1368 18.3631C57.1368 15.8246 59.4768 15.3638 61.6962 15.3638V16.0089ZM64.786 23.2683C64.5835 23.4442 64.2904 23.4568 64.062 23.3395C63.045 22.5185 62.8597 22.1373 62.3038 21.354C60.6231 23.0212 59.4294 23.5196 57.2532 23.5196C54.6718 23.5196 52.668 21.9739 52.668 18.8783C52.668 16.4613 54.0125 14.815 55.9345 14.0108C57.5979 13.2986 59.9207 13.173 61.6962 12.9761V12.5907C61.6962 11.8828 61.7522 11.045 61.3213 10.4334C60.9506 9.88466 60.2353 9.65846 59.6018 9.65846C58.434 9.65846 57.3954 10.2407 57.1411 11.4471C57.0894 11.7152 56.8869 11.9791 56.6068 11.9917L53.6376 11.6817C53.3876 11.6273 53.1075 11.4304 53.1808 11.0576C53.8617 7.55561 57.1196 6.5 60.0327 6.5C61.5238 6.5 63.4717 6.88538 64.6481 7.98288C66.1392 9.33591 65.997 11.1413 65.997 13.1059V17.7473C65.997 19.1422 66.5917 19.7538 67.1519 20.5078C67.3458 20.7759 67.3889 21.0984 67.1389 21.2995C66.5141 21.8064 65.4023 22.7489 64.7903 23.2767L64.786 23.2683" fill="#4E5A85"/>
<path fill-rule="evenodd" clip-rule="evenodd" d="M21.5282 16.0091C21.5282 17.1695 21.5584 18.1371 20.9551 19.1676C20.4681 20.0054 19.6967 20.5206 18.8348 20.5206C17.6584 20.5206 16.9732 19.6493 16.9732 18.3633C16.9732 15.8248 19.3132 15.364 21.5282 15.364V16.0091ZM24.6181 23.2685C24.4155 23.4445 24.1225 23.457 23.8941 23.3398C22.8771 22.5187 22.6961 22.1375 22.1358 21.3542C20.4552 23.0214 19.2658 23.5199 17.0852 23.5199C14.5082 23.5199 12.5 21.9742 12.5 18.8785C12.5 16.4615 13.8488 14.8153 15.7665 14.011C17.43 13.2989 19.7527 13.1732 21.5282 12.9763V12.591C21.5282 11.883 21.5842 11.0452 21.1576 10.4337C20.7827 9.8849 20.0673 9.6587 19.4381 9.6587C18.2703 9.6587 17.2274 10.241 16.9732 11.4474C16.9214 11.7155 16.7189 11.9794 16.4431 11.9919L13.4696 11.682C13.2197 11.6275 12.9439 11.4306 13.0128 11.0578C13.698 7.55586 16.9516 6.50024 19.8648 6.50024C21.3558 6.50024 23.3037 6.88563 24.4801 7.98313C25.9712 9.33615 25.829 11.1416 25.829 13.1062V17.7475C25.829 19.1424 26.4237 19.754 26.9839 20.508C27.1821 20.7761 27.2252 21.0987 26.9753 21.2997C26.3504 21.8066 25.2386 22.7491 24.6267 23.2769L24.6181 23.2685" fill="#4E5A85"/>
</g>
<defs>
<clipPath id="clip0_469_1877">
<rect width="99" height="29" fill="white" transform="translate(12.5 6.5)"/>
</clipPath>
</defs>
</svg>
