<svg width="124" height="42" viewBox="0 0 124 42" fill="none" xmlns="http://www.w3.org/2000/svg">
<path d="M53.8107 21.4617C53.8107 26.4587 49.7706 30.1409 44.8125 30.1409C39.8544 30.1409 35.8143 26.4587 35.8143 21.4617C35.8143 16.4295 39.8544 12.7826 44.8125 12.7826C49.7706 12.7826 53.8107 16.4295 53.8107 21.4617ZM49.8717 21.4617C49.8717 18.3391 47.5301 16.2026 44.8125 16.2026C42.0948 16.2026 39.7533 18.3391 39.7533 21.4617C39.7533 24.553 42.0948 26.7209 44.8125 26.7209C47.5301 26.7209 49.8717 24.5491 49.8717 21.4617Z" fill="#4E5A85"/>
<path d="M73.2224 21.4617C73.2224 26.4587 69.1823 30.1409 64.2242 30.1409C59.2661 30.1409 55.2261 26.4587 55.2261 21.4617C55.2261 16.4335 59.2661 12.7826 64.2242 12.7826C69.1823 12.7826 73.2224 16.4295 73.2224 21.4617ZM69.2834 21.4617C69.2834 18.3391 66.9419 16.2026 64.2242 16.2026C61.5066 16.2026 59.165 18.3391 59.165 21.4617C59.165 24.553 61.5066 26.7209 64.2242 26.7209C66.9419 26.7209 69.2834 24.5491 69.2834 21.4617Z" fill="#4E5A85"/>
<path d="M91.8254 13.3069V28.8887C91.8254 35.2982 87.9187 37.9161 83.3004 37.9161C78.9529 37.9161 76.3364 35.1026 75.3496 32.8017L78.779 31.4204C79.3897 32.833 80.886 34.5 83.2963 34.5C86.2526 34.5 88.0845 32.7352 88.0845 29.413V28.1648H87.9471C87.0654 29.2174 85.3669 30.1369 83.2235 30.1369C78.7386 30.1369 74.6298 26.3569 74.6298 21.493C74.6298 16.5939 78.7386 12.7826 83.2235 12.7826C85.3629 12.7826 87.0614 13.7022 87.9471 14.7235H88.0845V13.3109H91.8254V13.3069ZM88.3636 21.493C88.3636 18.4369 86.2566 16.2026 83.5754 16.2026C80.8577 16.2026 78.5809 18.4369 78.5809 21.493C78.5809 24.5178 80.8577 26.7209 83.5754 26.7209C86.2566 26.7209 88.3636 24.5178 88.3636 21.493Z" fill="#4E5A85"/>
<path d="M97.9927 4.17395V29.6087H94.1508V4.17395H97.9927Z" fill="#4E5A85"/>
<path d="M112.964 24.3183L116.021 26.2904C115.035 27.703 112.657 30.1369 108.548 30.1369C103.452 30.1369 99.6467 26.3256 99.6467 21.4578C99.6467 16.2965 103.485 12.7787 108.107 12.7787C112.762 12.7787 115.039 16.363 115.783 18.3L116.191 19.2861L104.2 24.0913C105.118 25.8326 106.546 26.7209 108.548 26.7209C110.554 26.7209 111.945 25.7661 112.964 24.3183ZM103.553 21.1956L111.569 17.9752C111.128 16.8913 109.802 16.1361 108.24 16.1361C106.239 16.1361 103.452 17.8461 103.553 21.1956Z" fill="#4E5A85"/>
<path d="M21.2717 19.204V15.5218H34.0956C34.221 16.1635 34.2857 16.9227 34.2857 17.7444C34.2857 20.507 33.5052 23.9231 30.9897 26.357C28.5431 28.8222 25.417 30.137 21.2758 30.137C13.6 30.137 7.14563 24.0874 7.14563 16.6605C7.14563 9.23352 13.6 3.18396 21.2758 3.18396C25.5221 3.18396 28.5471 4.79613 30.8199 6.89744L28.1346 9.4957C26.5048 8.01657 24.2967 6.86613 21.2717 6.86613C15.6666 6.86613 11.2828 11.237 11.2828 16.6605C11.2828 22.084 15.6666 26.4548 21.2717 26.4548C24.9074 26.4548 26.978 25.0422 28.3045 23.7587C29.3802 22.7179 30.0879 21.2309 30.367 19.2L21.2717 19.204Z" fill="#4E5A85"/>
</svg>
