<svg width="124" height="42" viewBox="0 0 124 42" fill="none" xmlns="http://www.w3.org/2000/svg">
<path d="M27.9253 31.8886C26.5112 32.1329 25.0723 32.2062 23.5838 32.4013L19.0437 19.3155V32.9629C17.6297 33.1094 16.3397 33.3047 15 33.5V8.5H18.771L23.9311 22.6848V8.5H27.9253V31.8886ZM35.74 17.6553C37.2783 17.6553 39.6351 17.582 41.0491 17.582V21.4882C39.2876 21.4882 37.2286 21.4882 35.74 21.5614V27.3721C38.0721 27.2257 40.4041 27.0302 42.7608 26.9569V30.7164L31.7706 31.5711V8.5H42.7608V12.4063H35.74V17.6553ZM57.522 12.4063H53.4038V30.3751C52.0641 30.3751 50.7244 30.3751 49.4346 30.4238V12.4063H45.3164V8.5H57.5221L57.522 12.4063ZM63.9722 17.3868H69.4053V21.293H63.9722V30.1554H60.0769V8.5H71.1667V12.4063H63.9722V17.3868ZM77.6169 26.7373C79.8746 26.786 82.1569 26.9572 84.3649 27.079V30.9365C80.8174 30.7166 77.2697 30.4972 73.6476 30.4238V8.5H77.6169V26.7373ZM87.7141 31.2051C88.9793 31.2784 90.319 31.3517 91.609 31.498V8.5H87.7141V31.2051ZM109 8.5L103.964 20.3897L109 33.5C107.511 33.3047 106.023 33.0361 104.534 32.7919L101.681 25.5655L98.7791 32.2062C97.3399 31.9618 95.9506 31.8886 94.512 31.6933L99.6225 20.2431L95.0079 8.5H99.2749L101.88 15.0674L104.658 8.5H109V8.5Z" fill="#4E5A85"/>
</svg>
